# xmcd CD database file
#
# Track frame offsets:
#	150
#	18245
#	36903
#	53887
#	71232
#	87172
#	105970
#	123754
#	141010
#	162319
#	181377
#	209811
#
# Disc length: 3031 seconds
#
# Revision: 0
# Processed by: cddbd v1.5.1PL0 Copyright (c) Steve Scherf et al.
# Submitted via: CDex 1.51
#
DISCID=a40bd50c
DTITLE=Jean Michael Jarre - The Golden Hits Of
DYEAR=1991
DGENRE=New Age
TTITLE0=4th RENDEVOUS
TTITLE1=ZOOLOOKOLOGIE
TTITLE2=MAGNETIC FIELDS
TTITLE3=EQUINOXE
TTITLE4=OXYGENE
TTITLE5=OXYGENE part 4
TTITLE6=EQUINOXE part 5
TTITLE7=SEPTEMBER
TTITLE8=THE OVERTURE
TTITLE9=CALYPSO No. 1-3
TTITLE10=ARPEGGIATOR
TTITLE11=ORIENT-EXPRESS
EXTD=YEAR: 1991
EXTT0=
EXTT1=
EXTT2=
EXTT3=
EXTT4=
EXTT5=
EXTT6=
EXTT7=
EXTT8=
EXTT9=
EXTT10=
EXTT11=
PLAYORDER=
